<?xml version="1.0" standalone="no"?>
<!DOCTYPE svg PUBLIC "-//W3C//DTD SVG 20010904//EN"
 "http://www.w3.org/TR/2001/REC-SVG-20010904/DTD/svg10.dtd">
<svg version="1.0" xmlns="http://www.w3.org/2000/svg"
 width="1120.000000pt" height="1120.000000pt" viewBox="0 0 1120.000000 1120.000000"
 preserveAspectRatio="xMidYMid meet">
<metadata>
Created by potrace 1.11, written by Peter Selinger 2001-2013
</metadata>
<g transform="translate(0.000000,1120.000000) scale(0.100000,-0.100000)"
fill="#000000" stroke="none">
<path d="M9288 9316 c-16 -8 -28 -13 -28 -10 0 2 -18 -7 -40 -21 -22 -14 -44
-25 -49 -25 -5 0 -11 -3 -13 -7 -1 -5 -25 -24 -53 -43 -88 -61 -184 -154 -222
-214 -19 -29 -23 -46 -18 -70 11 -56 8 -75 -25 -116 -17 -22 -28 -40 -23 -40
4 0 3 -4 -3 -8 -11 -7 -79 -106 -99 -143 -5 -11 -13 -19 -17 -19 -5 0 -8 -4
-8 -9 0 -4 -78 -125 -173 -267 -157 -234 -177 -259 -208 -267 -38 -9 -166 -46
-189 -55 -8 -3 -21 -6 -28 -8 -15 -3 -201 -63 -222 -71 -8 -4 -17 -7 -20 -8
-6 -2 -24 -9 -130 -52 -106 -43 -194 -86 -198 -95 -2 -5 -8 -8 -14 -8 -6 0
-41 -19 -77 -43 -36 -24 -82 -52 -101 -63 -19 -10 -37 -22 -40 -25 -3 -3 -21
-14 -40 -24 -19 -10 -37 -21 -40 -24 -3 -3 -48 -28 -100 -55 -52 -27 -114 -60
-138 -72 -23 -12 -58 -28 -77 -34 -19 -6 -35 -15 -35 -19 0 -4 -6 -8 -12 -8
-7 -1 -67 -23 -134 -51 -110 -46 -377 -137 -428 -147 -12 -2 -21 -4 -21 -5 0
-1 -7 -3 -15 -5 -8 -2 -69 -17 -135 -33 -66 -17 -138 -33 -160 -36 -22 -3 -60
-10 -85 -16 -25 -6 -56 -13 -70 -15 -14 -2 -38 -6 -55 -8 -16 -3 -52 -8 -80
-12 -27 -3 -57 -8 -65 -10 -28 -7 -115 -17 -260 -30 -41 -3 -97 -8 -124 -11
-44 -4 -246 -12 -439 -17 -42 -1 -77 2 -77 6 0 5 -4 5 -10 2 -14 -9 -80 -13
-85 -5 -2 4 -25 4 -50 0 -24 -4 -47 -4 -50 -2 -3 3 -44 7 -93 8 -118 3 -352
18 -449 29 -23 2 -77 7 -120 10 -43 3 -89 8 -103 10 -14 3 -56 7 -95 11 -38 3
-79 8 -90 10 -11 2 -45 6 -76 9 -31 3 -64 7 -75 9 -31 6 -97 16 -134 21 -61 7
-121 17 -257 41 -13 2 -33 6 -45 8 -88 15 -125 23 -161 32 -12 3 -35 8 -52 10
-16 3 -57 12 -90 20 -33 8 -69 17 -80 19 -70 17 -258 68 -285 78 -23 8 -203
67 -220 71 -15 4 -90 31 -125 46 -11 5 -58 23 -105 40 -47 17 -94 35 -105 40
-21 10 -223 80 -228 79 -1 0 -13 2 -27 5 -14 3 -45 8 -70 10 -25 2 -45 5 -45
6 0 0 -56 1 -125 2 -163 0 -378 -11 -520 -27 -25 -3 -63 -7 -85 -10 -41 -4
-98 -13 -150 -22 -16 -2 -39 -6 -50 -8 -11 -1 -40 -7 -65 -13 -25 -6 -58 -14
-75 -17 -39 -8 -60 -13 -60 -15 0 -1 -11 -4 -24 -6 -14 -2 -57 -20 -95 -39
-99 -48 -121 -83 -120 -190 2 -95 7 -125 41 -219 31 -85 81 -187 136 -276 42
-67 198 -282 226 -311 9 -9 41 -45 71 -79 116 -133 302 -309 458 -434 75 -61
108 -85 225 -166 84 -60 88 -57 -103 -64 -63 -2 -151 -7 -195 -10 -44 -4 -100
-9 -125 -11 -25 -2 -45 -5 -45 -5 0 -1 -18 -4 -40 -6 -22 -2 -51 -5 -65 -8
-14 -2 -28 -5 -31 -5 -18 -2 -80 -146 -94 -216 -16 -79 -19 -106 -19 -190 0
-193 53 -378 161 -563 24 -41 43 -76 43 -78 0 -4 28 -44 77 -112 9 -13 25 -33
35 -44 10 -12 18 -24 18 -27 1 -12 86 -98 125 -127 22 -16 46 -35 53 -41 7 -7
17 -13 21 -13 4 0 16 -8 27 -17 35 -33 234 -158 334 -211 88 -47 134 -73 149
-86 8 -6 16 -10 18 -8 2 2 34 -11 71 -29 80 -38 151 -69 212 -94 25 -10 59
-23 75 -30 81 -33 431 -143 479 -150 12 -2 31 -6 44 -9 12 -3 32 -8 45 -11 58
-12 74 -16 95 -20 13 -2 31 -6 40 -9 9 -3 40 -8 67 -12 28 -3 59 -8 70 -10 10
-2 37 -6 60 -9 64 -9 72 -14 86 -48 38 -91 198 -356 261 -432 9 -11 42 -51 73
-90 70 -87 190 -211 279 -290 38 -33 73 -65 80 -71 56 -53 290 -215 412 -286
130 -76 449 -226 466 -220 5 1 8 -2 8 -8 0 -6 3 -9 8 -8 4 1 23 -4 42 -11 19
-8 37 -15 40 -16 3 -1 12 -4 20 -8 24 -9 179 -59 193 -61 7 -2 32 -8 57 -15
25 -8 50 -14 55 -16 6 -1 17 -5 25 -8 8 -3 29 -8 45 -12 46 -9 107 -23 135
-29 48 -10 201 -36 208 -34 4 1 18 -1 32 -5 25 -6 67 -11 230 -25 169 -14 690
-6 822 13 18 2 58 7 88 10 57 5 113 12 165 19 17 3 53 8 80 12 28 3 59 8 70
10 11 2 36 7 55 10 19 4 44 8 55 10 11 3 34 7 50 9 17 3 37 8 45 10 8 2 29 7
45 10 17 2 41 7 55 10 14 3 36 8 50 11 14 3 43 10 65 16 22 6 47 12 55 13 8 2
15 4 15 5 0 1 9 3 20 4 11 2 49 11 85 21 36 9 72 19 80 20 8 2 16 4 18 5 1 2
5 3 10 4 18 4 108 29 122 34 18 7 16 6 67 20 23 7 70 22 105 33 35 11 68 22
73 23 6 2 17 6 25 9 8 3 58 20 110 38 52 18 136 47 185 66 50 19 110 42 135
51 25 9 47 19 50 22 3 3 12 6 20 8 17 4 194 79 294 125 160 74 509 251 616
313 63 36 127 73 141 80 15 8 32 21 39 29 7 8 18 15 26 15 7 0 19 6 26 13 7 7
52 39 101 72 48 32 96 67 107 77 10 10 22 18 26 18 11 0 255 252 349 361 49
57 97 112 107 122 10 10 18 21 18 25 0 4 16 25 35 45 19 20 35 41 35 46 0 5 4
11 8 13 4 2 37 41 72 88 35 47 68 87 72 88 4 2 8 8 8 14 0 5 21 36 46 69 25
32 42 59 37 59 -4 0 -3 4 3 8 14 8 172 249 209 318 15 27 35 63 45 79 10 17
33 59 51 95 18 36 37 68 42 71 5 3 8 8 7 10 -1 2 24 58 55 124 31 66 60 129
65 140 30 65 116 308 124 348 2 15 7 31 11 37 3 5 8 18 10 27 2 10 10 47 19
83 39 167 50 269 51 455 0 151 -7 236 -26 310 -5 22 -12 51 -15 65 -18 93
-170 510 -195 534 -5 6 -9 18 -9 28 0 10 -4 18 -10 18 -5 0 -10 4 -10 10 0 40
-171 259 -221 283 -8 4 -27 16 -44 26 -16 11 -58 34 -92 51 -104 53 -171 134
-251 305 -13 28 -33 70 -45 95 -11 25 -21 47 -22 50 -1 3 -9 22 -18 44 -9 21
-17 41 -17 45 -1 3 -9 24 -20 46 -11 22 -19 47 -20 56 0 9 -3 19 -7 23 -5 4
-8 11 -9 14 0 4 -4 14 -7 22 -7 17 -61 192 -71 230 -4 14 -13 48 -21 75 -37
136 -48 256 -31 340 13 64 14 163 2 183 -4 7 -3 12 2 12 8 0 5 38 -13 140 -16
99 -43 138 -139 198 -154 99 -416 233 -478 246 -3 0 -10 4 -14 9 -12 12 -77 8
-106 -7z m-103 -1433 c-5 -92 -15 -220 -20 -263 -13 -111 -17 -146 -21 -151
-2 -4 -6 -24 -10 -44 -7 -46 -10 -61 -22 -100 l-9 -30 -8 30 c-4 17 -14 50
-21 75 -29 92 -34 166 -20 255 8 51 11 66 20 87 4 9 9 22 10 30 5 22 17 51 43
103 14 28 31 60 37 72 21 42 27 23 21 -64z"/>
</g>
</svg>
